<svg width="24" height="24" viewBox="0 0 24 24" fill="none" xmlns="http://www.w3.org/2000/svg">
<path d="M8.88672 21.3333C9.71515 21.3333 10.3867 20.6617 10.3867 19.8333C10.3867 19.0048 9.71515 18.3333 8.88672 18.3333C8.05829 18.3333 7.38672 19.0048 7.38672 19.8333C7.38672 20.6617 8.05829 21.3333 8.88672 21.3333Z" fill="#3A3A3A"/>
<path d="M18 21.3333C18.8284 21.3333 19.5 20.6617 19.5 19.8333C19.5 19.0048 18.8284 18.3333 18 18.3333C17.1716 18.3333 16.5 19.0048 16.5 19.8333C16.5 20.6617 17.1716 21.3333 18 21.3333Z" fill="#3A3A3A"/>
<path d="M15.0468 4.66659C15.0165 4.44565 15.0009 4.22293 15.0002 3.99992C15.0009 3.77691 15.0165 3.55419 15.0468 3.33325H7.66016L8.09349 4.66659H15.0468Z" fill="#3A3A3A"/>
<path d="M19.9998 8.99991H19.7198L18.8865 12.6666H8.8865L5.83983 3.01991C5.80688 2.91755 5.74965 2.82468 5.67303 2.74922C5.59641 2.67377 5.50268 2.61796 5.39983 2.58658L2.6665 1.74658C2.58245 1.72075 2.49414 1.71173 2.40661 1.72003C2.31908 1.72833 2.23404 1.7538 2.15635 1.79496C1.99944 1.87811 1.88199 2.02017 1.82983 2.18991C1.77767 2.35965 1.79508 2.54316 1.87822 2.70006C1.96136 2.85697 2.10342 2.97442 2.27316 3.02658L4.6665 3.75991L7.7265 13.4266L6.63316 14.3199L6.5465 14.4066C6.27605 14.7182 6.12276 15.1145 6.11303 15.527C6.10329 15.9395 6.23772 16.3425 6.49316 16.6666C6.67487 16.8875 6.90577 17.0629 7.16739 17.1787C7.42901 17.2945 7.71409 17.3474 7.99983 17.3332H19.1265C19.3033 17.3332 19.4729 17.263 19.5979 17.138C19.7229 17.013 19.7932 16.8434 19.7932 16.6666C19.7932 16.4898 19.7229 16.3202 19.5979 16.1952C19.4729 16.0701 19.3033 15.9999 19.1265 15.9999H7.89316C7.81639 15.9973 7.7416 15.9749 7.676 15.9349C7.61041 15.895 7.55622 15.8388 7.51869 15.7717C7.48116 15.7047 7.46155 15.6292 7.46175 15.5523C7.46195 15.4755 7.48195 15.4001 7.51983 15.3332L9.1265 13.9999H19.4198C19.5739 14.0037 19.7246 13.9539 19.8461 13.8591C19.9677 13.7643 20.0526 13.6303 20.0865 13.4799L21.1332 8.87324C20.7614 8.95849 20.3812 9.00099 19.9998 8.99991V8.99991Z" fill="#3A3A3A"/>
<path d="M19.9998 7.33341C21.8408 7.33341 23.3332 5.84103 23.3332 4.00008C23.3332 2.15913 21.8408 0.666748 19.9998 0.666748C18.1589 0.666748 16.6665 2.15913 16.6665 4.00008C16.6665 5.84103 18.1589 7.33341 19.9998 7.33341Z" fill="#3A3A3A"/>
</svg>
